{
	"asset":{
		"generator":"Khronos glTF Blender I/O v4.5.47",
		"version":"2.0"
	},
	"extensionsUsed":[
		"KHR_texture_transform",
		"EXT_texture_webp",
		"KHR_lights_punctual"
	],
	"extensionsRequired":[
		"KHR_texture_transform",
		"KHR_lights_punctual"
	],
	"extensions":{
		"KHR_lights_punctual":{
			"lights":[
				{
					"color":[
						1,
						0.6200013160705566,
						0.050000011920928955
					],
					"intensity":0,
					"type":"point",
					"name":"Point.001"
				},
				{
					"color":[
						1,
						0.6200000047683716,
						0.050000011920928955
					],
					"intensity":0,
					"type":"point",
					"name":"Point.002"
				},
				{
					"color":[
						1,
						0.6200000047683716,
						0.050000011920928955
					],
					"intensity":0,
					"type":"point",
					"name":"Point.003"
				}
			]
		}
	},
	"scene":0,
	"scenes":[
		{
			"name":"Scene",
			"nodes":[
				0,
				1,
				2,
				3,
				4,
				5,
				6
			]
		}
	],
	"nodes":[
		{
			"camera":0,
			"name":"Camera",
			"rotation":[
				-0.2391175776720047,
				0.36964380741119385,
				0.0990457534790039,
				0.8923991322517395
			],
			"translation":[
				6.543330192565918,
				6.019898414611816,
				10.671926498413086
			]
		},
		{
			"mesh":0,
			"name":"Riverbank",
			"scale":[
				2.6497771739959717,
				1,
				58.060943603515625
			]
		},
		{
			"mesh":1,
			"name":"Water_Placeholder",
			"scale":[
				4.018884181976318,
				4.427680015563965,
				77.90141296386719
			],
			"translation":[
				0,
				0.5355650186538696,
				0
			]
		},
		{
			"mesh":2,
			"name":"Ground"
		},
		{
			"extensions":{
				"KHR_lights_punctual":{
					"light":0
				}
			},
			"name":"Light 1",
			"rotation":[
				-0.7071068286895752,
				0,
				0,
				0.7071068286895752
			],
			"translation":[
				0,
				5.949337005615234,
				0
			]
		},
		{
			"extensions":{
				"KHR_lights_punctual":{
					"light":1
				}
			},
			"name":"Light 2",
			"rotation":[
				-0.7071068286895752,
				0,
				0,
				0.7071068286895752
			],
			"translation":[
				0,
				5.949337005615234,
				-19.496257781982422
			]
		},
		{
			"extensions":{
				"KHR_lights_punctual":{
					"light":2
				}
			},
			"name":"Light 3",
			"rotation":[
				-0.7071068286895752,
				0,
				0,
				0.7071068286895752
			],
			"translation":[
				0,
				5.949337005615234,
				13.524998664855957
			]
		}
	],
	"cameras":[
		{
			"name":"Camera",
			"perspective":{
				"aspectRatio":1.7777777777777777,
				"yfov":0.7984415303927126,
				"zfar":100,
				"znear":0.10000000149011612
			},
			"type":"perspective"
		}
	],
	"materials":[
		{
			"doubleSided":true,
			"name":"Rock",
			"normalTexture":{
				"extensions":{
					"KHR_texture_transform":{
						"offset":[
							0,
							-74
						],
						"scale":[
							1,
							75
						]
					}
				},
				"index":0
			},
			"pbrMetallicRoughness":{
				"baseColorTexture":{
					"extensions":{
						"KHR_texture_transform":{
							"offset":[
								0,
								-74
							],
							"scale":[
								1,
								75
							]
						}
					},
					"index":1
				},
				"metallicFactor":0,
				"metallicRoughnessTexture":{
					"extensions":{
						"KHR_texture_transform":{
							"offset":[
								0,
								-74
							],
							"scale":[
								1,
								75
							]
						}
					},
					"index":2
				}
			}
		},
		{
			"doubleSided":true,
			"name":"Concrete",
			"normalTexture":{
				"extensions":{
					"KHR_texture_transform":{
						"offset":[
							0,
							-44
						],
						"scale":[
							1,
							45
						]
					}
				},
				"index":3
			},
			"pbrMetallicRoughness":{
				"baseColorTexture":{
					"extensions":{
						"KHR_texture_transform":{
							"offset":[
								0,
								-44
							],
							"scale":[
								1,
								45
							]
						}
					},
					"index":4
				},
				"metallicRoughnessTexture":{
					"extensions":{
						"KHR_texture_transform":{
							"offset":[
								0,
								-44
							],
							"scale":[
								1,
								45
							]
						}
					},
					"index":5
				}
			}
		},
		{
			"doubleSided":true,
			"name":"Material",
			"pbrMetallicRoughness":{
				"baseColorFactor":[
					0.40735307335853577,
					0.48024967312812805,
					0.8010241389274597,
					1
				],
				"metallicFactor":0,
				"roughnessFactor":0.5
			}
		},
		{
			"doubleSided":true,
			"name":"Ground",
			"normalTexture":{
				"extensions":{
					"KHR_texture_transform":{
						"offset":[
							-3.555771735869868,
							-38.84164262881726
						],
						"rotation":0.0890117883682251,
						"scale":[
							10,
							40
						]
					}
				},
				"index":6
			},
			"pbrMetallicRoughness":{
				"baseColorTexture":{
					"extensions":{
						"KHR_texture_transform":{
							"offset":[
								-3.555771735869868,
								-38.84164262881726
							],
							"rotation":0.0890117883682251,
							"scale":[
								10,
								40
							]
						}
					},
					"index":7
				},
				"metallicFactor":0,
				"metallicRoughnessTexture":{
					"extensions":{
						"KHR_texture_transform":{
							"offset":[
								-3.555771735869868,
								-38.84164262881726
							],
							"rotation":0.0890117883682251,
							"scale":[
								10,
								40
							]
						}
					},
					"index":8
				}
			}
		}
	],
	"meshes":[
		{
			"name":"Plane",
			"primitives":[
				{
					"attributes":{
						"POSITION":0,
						"NORMAL":1,
						"TEXCOORD_0":2,
						"TANGENT":3
					},
					"indices":4,
					"material":0
				},
				{
					"attributes":{
						"POSITION":5,
						"NORMAL":6,
						"TEXCOORD_0":7,
						"TANGENT":8
					},
					"indices":9,
					"material":1
				}
			]
		},
		{
			"name":"Plane.001",
			"primitives":[
				{
					"attributes":{
						"POSITION":10,
						"NORMAL":11,
						"TEXCOORD_0":12,
						"TANGENT":13
					},
					"indices":14,
					"material":2
				}
			]
		},
		{
			"name":"Plane.002",
			"primitives":[
				{
					"attributes":{
						"POSITION":15,
						"NORMAL":16,
						"TEXCOORD_0":17,
						"TANGENT":18
					},
					"indices":19,
					"material":3
				}
			]
		}
	],
	"textures":[
		{
			"extensions":{
				"EXT_texture_webp":{
					"source":0
				}
			},
			"sampler":0,
			"source":1
		},
		{
			"extensions":{
				"EXT_texture_webp":{
					"source":2
				}
			},
			"sampler":0,
			"source":3
		},
		{
			"extensions":{
				"EXT_texture_webp":{
					"source":4
				}
			},
			"sampler":0,
			"source":5
		},
		{
			"extensions":{
				"EXT_texture_webp":{
					"source":6
				}
			},
			"sampler":0,
			"source":7
		},
		{
			"extensions":{
				"EXT_texture_webp":{
					"source":8
				}
			},
			"sampler":0,
			"source":9
		},
		{
			"extensions":{
				"EXT_texture_webp":{
					"source":10
				}
			},
			"sampler":0,
			"source":11
		},
		{
			"extensions":{
				"EXT_texture_webp":{
					"source":12
				}
			},
			"sampler":0,
			"source":13
		},
		{
			"extensions":{
				"EXT_texture_webp":{
					"source":14
				}
			},
			"sampler":0,
			"source":15
		},
		{
			"extensions":{
				"EXT_texture_webp":{
					"source":16
				}
			},
			"sampler":0,
			"source":17
		}
	],
	"images":[
		{
			"mimeType":"image/webp",
			"name":"Rocks007_1K-JPG_NormalGL",
			"uri":"Rocks007_1K-JPG_NormalGL.webp"
		},
		{
			"mimeType":"image/jpeg",
			"name":"Rocks007_1K-JPG_NormalGL",
			"uri":"Rocks007_1K-JPG_NormalGL.jpg"
		},
		{
			"mimeType":"image/webp",
			"name":"Rock_DiffuseAO_1k",
			"uri":"Rock_DiffuseAO_1k.webp"
		},
		{
			"mimeType":"image/png",
			"name":"Rock_DiffuseAO_1k",
			"uri":"Rock_DiffuseAO_1k.png"
		},
		{
			"mimeType":"image/webp",
			"name":"Rocks007_1K-JPG_Roughness",
			"uri":"Rocks007_1K-JPG_Roughness.webp"
		},
		{
			"mimeType":"image/png",
			"name":"Rocks007_1K-JPG_Roughness",
			"uri":"Rocks007_1K-JPG_Roughness.png"
		},
		{
			"mimeType":"image/webp",
			"name":"Concrete044C_1K-JPG_NormalGL",
			"uri":"Concrete044C_1K-JPG_NormalGL.webp"
		},
		{
			"mimeType":"image/jpeg",
			"name":"Concrete044C_1K-JPG_NormalGL",
			"uri":"Concrete044C_1K-JPG_NormalGL.jpg"
		},
		{
			"mimeType":"image/webp",
			"name":"Concrete044C_1K-JPG_Color",
			"uri":"Concrete044C_1K-JPG_Color.webp"
		},
		{
			"mimeType":"image/jpeg",
			"name":"Concrete044C_1K-JPG_Color",
			"uri":"Concrete044C_1K-JPG_Color.jpg"
		},
		{
			"mimeType":"image/webp",
			"name":"Concrete044C_1K-JPG_Metalness-Concrete044C_1K-JPG_Roughness",
			"uri":"Concrete044C_1K-JPG_Metalness-Concrete044C_1K-JPG_Roughness.webp"
		},
		{
			"mimeType":"image/png",
			"name":"Concrete044C_1K-JPG_Metalness-Concrete044C_1K-JPG_Roughness",
			"uri":"Concrete044C_1K-JPG_Metalness-Concrete044C_1K-JPG_Roughness.png"
		},
		{
			"mimeType":"image/webp",
			"name":"Ground013_1K-JPG_NormalGL",
			"uri":"Ground013_1K-JPG_NormalGL.webp"
		},
		{
			"mimeType":"image/jpeg",
			"name":"Ground013_1K-JPG_NormalGL",
			"uri":"Ground013_1K-JPG_NormalGL.jpg"
		},
		{
			"mimeType":"image/webp",
			"name":"Ground013_1K-JPG_Color",
			"uri":"Ground013_1K-JPG_Color.webp"
		},
		{
			"mimeType":"image/jpeg",
			"name":"Ground013_1K-JPG_Color",
			"uri":"Ground013_1K-JPG_Color.jpg"
		},
		{
			"mimeType":"image/webp",
			"name":"Ground013_1K-JPG_Roughness",
			"uri":"Ground013_1K-JPG_Roughness.webp"
		},
		{
			"mimeType":"image/png",
			"name":"Ground013_1K-JPG_Roughness",
			"uri":"Ground013_1K-JPG_Roughness.png"
		}
	],
	"accessors":[
		{
			"bufferView":0,
			"componentType":5126,
			"count":8,
			"max":[
				1.5,
				2,
				1
			],
			"min":[
				-1.5,
				0,
				-1
			],
			"type":"VEC3"
		},
		{
			"bufferView":1,
			"componentType":5126,
			"count":8,
			"type":"VEC3"
		},
		{
			"bufferView":2,
			"componentType":5126,
			"count":8,
			"type":"VEC2"
		},
		{
			"bufferView":3,
			"componentType":5126,
			"count":8,
			"type":"VEC4"
		},
		{
			"bufferView":4,
			"componentType":5123,
			"count":12,
			"type":"SCALAR"
		},
		{
			"bufferView":5,
			"componentType":5126,
			"count":36,
			"max":[
				1.561496376991272,
				2.200000047683716,
				1
			],
			"min":[
				-1.5476434230804443,
				0,
				-1
			],
			"type":"VEC3"
		},
		{
			"bufferView":6,
			"componentType":5126,
			"count":36,
			"type":"VEC3"
		},
		{
			"bufferView":7,
			"componentType":5126,
			"count":36,
			"type":"VEC2"
		},
		{
			"bufferView":8,
			"componentType":5126,
			"count":36,
			"type":"VEC4"
		},
		{
			"bufferView":9,
			"componentType":5123,
			"count":54,
			"type":"SCALAR"
		},
		{
			"bufferView":10,
			"componentType":5126,
			"count":4,
			"max":[
				1,
				0,
				1
			],
			"min":[
				-1,
				0,
				-1
			],
			"type":"VEC3"
		},
		{
			"bufferView":11,
			"componentType":5126,
			"count":4,
			"type":"VEC3"
		},
		{
			"bufferView":12,
			"componentType":5126,
			"count":4,
			"type":"VEC2"
		},
		{
			"bufferView":13,
			"componentType":5126,
			"count":4,
			"type":"VEC4"
		},
		{
			"bufferView":14,
			"componentType":5123,
			"count":6,
			"type":"SCALAR"
		},
		{
			"bufferView":15,
			"componentType":5126,
			"count":32376,
			"max":[
				37.03547668457031,
				3.3233675956726074,
				47.867645263671875
			],
			"min":[
				-37.03547668457031,
				0.7052617073059082,
				-47.67778396606445
			],
			"type":"VEC3"
		},
		{
			"bufferView":16,
			"componentType":5126,
			"count":32376,
			"type":"VEC3"
		},
		{
			"bufferView":17,
			"componentType":5126,
			"count":32376,
			"type":"VEC2"
		},
		{
			"bufferView":18,
			"componentType":5126,
			"count":32376,
			"type":"VEC4"
		},
		{
			"bufferView":19,
			"componentType":5123,
			"count":49152,
			"type":"SCALAR"
		}
	],
	"bufferViews":[
		{
			"buffer":0,
			"byteLength":96,
			"byteOffset":0,
			"target":34962
		},
		{
			"buffer":0,
			"byteLength":96,
			"byteOffset":96,
			"target":34962
		},
		{
			"buffer":0,
			"byteLength":64,
			"byteOffset":192,
			"target":34962
		},
		{
			"buffer":0,
			"byteLength":128,
			"byteOffset":256,
			"target":34962
		},
		{
			"buffer":0,
			"byteLength":24,
			"byteOffset":384,
			"target":34963
		},
		{
			"buffer":0,
			"byteLength":432,
			"byteOffset":408,
			"target":34962
		},
		{
			"buffer":0,
			"byteLength":432,
			"byteOffset":840,
			"target":34962
		},
		{
			"buffer":0,
			"byteLength":288,
			"byteOffset":1272,
			"target":34962
		},
		{
			"buffer":0,
			"byteLength":576,
			"byteOffset":1560,
			"target":34962
		},
		{
			"buffer":0,
			"byteLength":108,
			"byteOffset":2136,
			"target":34963
		},
		{
			"buffer":0,
			"byteLength":48,
			"byteOffset":2244,
			"target":34962
		},
		{
			"buffer":0,
			"byteLength":48,
			"byteOffset":2292,
			"target":34962
		},
		{
			"buffer":0,
			"byteLength":32,
			"byteOffset":2340,
			"target":34962
		},
		{
			"buffer":0,
			"byteLength":64,
			"byteOffset":2372,
			"target":34962
		},
		{
			"buffer":0,
			"byteLength":12,
			"byteOffset":2436,
			"target":34963
		},
		{
			"buffer":0,
			"byteLength":388512,
			"byteOffset":2448,
			"target":34962
		},
		{
			"buffer":0,
			"byteLength":388512,
			"byteOffset":390960,
			"target":34962
		},
		{
			"buffer":0,
			"byteLength":259008,
			"byteOffset":779472,
			"target":34962
		},
		{
			"buffer":0,
			"byteLength":518016,
			"byteOffset":1038480,
			"target":34962
		},
		{
			"buffer":0,
			"byteLength":98304,
			"byteOffset":1556496,
			"target":34963
		}
	],
	"samplers":[
		{
			"magFilter":9729,
			"minFilter":9987
		}
	],
	"buffers":[
		{
			"byteLength":1654800,
			"uri":"river.data"
		}
	]
}
